# xmcd
#
# Track frame offsets: 
#        300
#        16595
#        27485
#        40175
#        52702
#        64507
#        75545
#        89060
#        103917
#        116295
#        131570
#        144615
#        164852
#        178247
#        189880
#        203927
#        216660
#        229300
#        241852
#        253520
#
# Disc length: 3570 seconds
#
# Revision: 2
# Processed by: cddbd v1.5.1PL0 Copyright (c) Steve Scherf et al.
# Submitted via: ExactAudioCopy v0.95a5
#
DISCID=1d0dee14
DTITLE=Slim Dusty - Beer Drinking Songs of Australia
DYEAR=1986
DGENRE=Folk
TTITLE0=He's A Good Bloke When He's Sober, But ...
TTITLE1=You've Got To Drink The Froth To Get The Beer
TTITLE2=Pub With No Beer
TTITLE3=The Hangover Song
TTITLE4=Mad Jack's Cockatoo
TTITLE5=My Pal Alcohol
TTITLE6=Whiskey Blues
TTITLE7=Pay Day At The Pub
TTITLE8=Old Bush Barbeque
TTITLE9=Three Rivers Hotel
TTITLE10=The Boxing Kangaroo
TTITLE11=Born With An Endless Thirst
TTITLE12=Joe Maguire's Pub
TTITLE13=The Pub Rock
TTITLE14=The Pubs Still Make A Quid
TTITLE15=The Pub That Doesn't Sell Beer
TTITLE16=Answer To The Pub With No Beer
TTITLE17=Callaghan's Hotel
TTITLE18=Duncan
TTITLE19=End Of The Pub
EXTD=(c)1986 EMI Records Australia\nKatalog: SCXO 430045\nupc 50999430
EXTD=04515 
EXTT0=
EXTT1=
EXTT2=
EXTT3=
EXTT4=
EXTT5=
EXTT6=
EXTT7=
EXTT8=
EXTT9=
EXTT10=
EXTT11=
EXTT12=
EXTT13=
EXTT14=
EXTT15=
EXTT16=
EXTT17=
EXTT18=
EXTT19=
PLAYORDER=
